<svg version="1.1" xmlns="http://www.w3.org/2000/svg" xmlns:xlink="http://www.w3.org/1999/xlink" width="800px" height="800px" viewBox="0,0,256,256"><g fill="#072751" fill-rule="evenodd" stroke="none" stroke-width="1" stroke-linecap="butt" stroke-linejoin="miter" stroke-miterlimit="10" stroke-dasharray="" stroke-dashoffset="0" font-family="none" font-weight="none" font-size="none" text-anchor="none" style="mix-blend-mode: normal"><g transform="translate(0.00013,0.00013) scale(10.66667,10.66667)"><path d="M5.29289,5.29289c0.39053,-0.39052 1.02369,-0.39052 1.41422,0l5.29289,5.29291l5.2929,-5.29291c0.3905,-0.39052 1.0237,-0.39052 1.4142,0c0.3905,0.39053 0.3905,1.02369 0,1.41422l-5.2929,5.29289l5.2929,5.2929c0.3905,0.3905 0.3905,1.0237 0,1.4142c-0.3905,0.3905 -1.0237,0.3905 -1.4142,0l-5.2929,-5.2929l-5.29289,5.2929c-0.39053,0.3905 -1.02369,0.3905 -1.41422,0c-0.39052,-0.3905 -0.39052,-1.0237 0,-1.4142l5.29291,-5.2929l-5.29291,-5.29289c-0.39052,-0.39053 -0.39052,-1.02369 0,-1.41422z"></path></g></g></svg>